#!OML:ASF I:\salsa\salsa 7_09\Patient 1\Session 1\dancerfemale.ASF
:FULLY-SPECIFIED
:DEGREES
1932
root 5.14675 15.647 0.230393 -728.907 770.031 -19.4633
lowerback 7.32009 -3.84258 3.10465
upperback -11.1742 -3.96356 4.48253
thorax -16.582 -1.73239 4.18585
lowerneck 5.25102 -3.22665 -22.0345
upperneck 4.06416 -6.39186 36.0986
head 2.17147 -3.31816 16.7853
rclavicle 4.17448e-015 -2.78299e-014
rhumerus 43.8678 -52.2528 -36.5852
rradius 80.3284
rwrist -23.4942
rhand -11.9952 430.007
rfingers 7.12502
rthumb 14.0617 400.503
lclavicle 4.17448e-015 -2.78299e-014
lhumerus -42.6823 4.57162 104.898
lradius 99.0726
lwrist -11.7995
lhand -39.4468 51.2699
lfingers 7.12502
lthumb -12.4344 440.88
rfemur -12.797 13.3001 26.1868
rtibia 22.4136
rfoot -50.837 34.6235
rtoes -39.4935
lfemur -45.7316 -34.1726 20.5329
ltibia 54.4096
lfoot -25.457 -9.85548
ltoes -37.4048
1933
root 5.5224 15.6764 0.0299382 -725.39 763.635 -15.5749
lowerback 7.52309 -3.49068 2.68591
upperback -10.9597 -3.5769 4.50561
thorax -16.4236 -1.51955 4.36206
lowerneck 5.56239 -4.97593 -22.3567
upperneck 3.87907 -9.09647 34.9069
head 2.93257 -4.75449 16.0768
rclavicle -5.38209e-014 -3.19049e-014
rhumerus 43.026 -50.3114 -36.3341
rradius 81.1941
rwrist -25.5355
rhand -11.9906 427.883
rfingers 7.12502
rthumb 14.0661 398.379
lclavicle -5.38209e-014 -3.19049e-014
lhumerus -43.8611 3.66555 106.117
lradius 99.2612
lwrist -10.9252
lhand -38.2531 53.0552
lfingers 7.12502
lthumb -11.2834 442.732
rfemur -13.4015 12.4961 23.2033
rtibia 22.6529
rfoot -51.0892 39.9988
rtoes -38.017
lfemur -40.9678 -34.1812 17.622
ltibia 52.2734
lfoot -25.8207 -11.1331
ltoes -40.6591
1934
root 5.90642 15.7081 -0.175516 -722.841 756.734 -12.6312
lowerback 7.94338 -3.13564 2.36904
upperback -10.6409 -3.16592 4.52638
thorax -16.2946 -1.30769 4.48401
lowerneck 5.74163 -6.87393 -22.4518
upperneck 3.71382 -11.9258 33.4863
head 3.68716 -6.21613 15.1247
rclavicle -1.28191e-013 -2.72335e-014
rhumerus 43.1958 -48.4164 -37.0718
rradius 82.084
rwrist -27.8148
rhand -9.90351 425.773
rfingers 7.12502
rthumb 16.0766 396.42
lclavicle -1.28191e-013 -2.72335e-014
lhumerus -44.845 2.36355 107.452
lradius 99.1992
lwrist -9.73806
lhand -35.4185 53.8663
lfingers 7.12502
lthumb -8.54866 443.673
rfemur -14.2813 12.199 20.3864
rtibia 22.7223
rfoot -50.1049 43.5836
rtoes -35.5583
lfemur -35.5685 -33.0703 13.6066
ltibia 50.199
lfoot -26.8498 -10.9231
ltoes -43.5152
1935
root 6.30843 15.7282 -0.382845 -720.813 749.724 -10.2391
lowerback 8.37414 -2.94572 2.06858
upperback -10.2897 -2.98531 4.51033
thorax -16.128 -1.20921 4.60107
lowerneck 5.65066 -8.90719 -21.9614
upperneck 3.6917 -14.7953 31.5739
head 4.37987 -7.63511 13.7701
rclavicle 6.25178e-014 1.55052e-014
rhumerus 43.7115 -45.9408 -38.1017
rradius 82.8631
rwrist -28.7873
rhand -8.96258 423.832
rfingers 7.12502
rthumb 16.9825 394.555
lclavicle 6.25178e-014 1.55052e-014
lhumerus -45.5498 0.520847 108.851
lradius 98.857
lwrist -7.66586
lhand -34.8574 53.2654
lfingers 7.12502
lthumb -8.00717 443.094
rfemur -15.6288 11.3887 17.6067
rtibia 22.8712
rfoot -47.5198 45.8139
rtoes -31.3396
lfemur -30.3271 -31.0914 8.86237
ltibia 48.1554
lfoot -28.3448 -9.24744
ltoes -43.7776
1936
root 6.71349 15.8244 -0.579885 -718.964 742.663 -8.22738
lowerback 8.56903 -2.75237 1.57193
upperback -9.97301 -2.83278 4.53151
thorax -15.8392 -1.10097 4.8597
lowerneck 6.14381 -10.8966 -21.2834
upperneck 3.09665 -17.4533 29.3903
head 4.59382 -8.99066 12.3424
rclavicle 1.87852e-014 9.54166e-015
rhumerus 44.2169 -43.3946 -38.5855
rradius 83.7479
rwrist -28.2174
rhand -10.1442 422.367
rfingers 7.12502
rthumb 15.8448 392.996
lclavicle 1.87852e-014 9.54166e-015
lhumerus -46.0485 -1.46446 110.411
lradius 98.6527
lwrist -6.39764
lhand -33.8265 50.9131
lfingers 7.12502
lthumb -7.01212 440.777
rfemur -17.2757 12.1904 15.0023
rtibia 23.0012
rfoot -43.4878 41.4012
rtoes -27.3213
lfemur -25.5436 -28.7953 4.00748
ltibia 45.8695
lfoot -29.8999 -6.25011
ltoes -43.0491
1937
root 7.10859 15.9086 -0.769615 -717.168 735.895 -6.42837
lowerback 8.54032 -2.53965 0.673345
upperback -9.66733 -2.73718 4.44587
thorax -15.404 -0.988282 5.21892
lowerneck 6.5337 -12.9431 -20.1776
upperneck 2.30784 -20.0552 27.3668
head 4.62958 -10.2945 10.9746
rclavicle 2.95195e-014 -5.28767e-014
rhumerus 44.6917 -41.6177 -38.7458
rradius 84.7712
rwrist -26.9341
rhand -10.8829 421.021
rfingers 7.12502
rthumb 15.1333 391.594
lclavicle 2.95195e-014 -5.28767e-014
lhumerus -46.2175 -4.45262 112.136
lradius 98.416
lwrist -5.71661
lhand -33.7411 50.1186
lfingers 7.12502
lthumb -6.92965 439.985
rfemur -19.3419 15.0858 12.2334
rtibia 23.4118
rfoot -38.4046 29.4697
rtoes -22.0258
lfemur -21.9914 -25.5806 -0.703696
ltibia 43.7258
lfoot -31.4954 -3.01104
ltoes -41.6974
1938
root 7.48516 15.9758 -0.952752 -715.469 729.444 -5.2646
lowerback 8.24583 -2.47579 -0.0798865
upperback -9.46562 -2.81145 4.39977
thorax -14.9241 -0.972023 5.56752
lowerneck 7.2761 -14.6997 -18.9513
upperneck 1.48021 -22.2569 25.607
head 4.42295 -11.4263 9.86982
rclavicle 1.82882e-014 -3.22031e-014
rhumerus 45.5391 -39.692 -39.4634
rradius 85.9921
rwrist -25.7233
rhand -12.261 420.605
rfingers 7.12502
rthumb 13.8055 391.083
lclavicle 1.82882e-014 -3.22031e-014
lhumerus -46.6169 -7.87447 113.794
lradius 98.4971
lwrist -6.125
lhand -33.7731 49.8756
lfingers 7.12502
lthumb -6.96051 439.741
rfemur -21.5698 16.4149 10.6763
rtibia 23.9692
rfoot -36.0348 10.613
rtoes -11.8242
lfemur -19.9159 -21.9702 -4.3495
ltibia 41.828
lfoot -32.5204 -0.129706
ltoes -40.1091
1939
root 7.84047 16.0217 -1.13535 -713.667 723.205 -3.95987
lowerback 7.72079 -2.45445 -1.39981
upperback -9.40104 -3.03128 4.25236
thorax -14.4287 -0.974191 6.14347
lowerneck 8.28604 -16.114 -18.2331
upperneck 0.757709 -24.1153 24.5598
head 4.22601 -12.4135 9.22396
rclavicle 1.83876e-014 -7.95139e-016
rhumerus 46.9685 -37.8657 -40.6155
rradius 87.2932
rwrist -25.4207
rhand -12.9099 420.843
rfingers 7.12502
rthumb 13.18 391.28
lclavicle 1.83876e-014 -7.95139e-016
lhumerus -47.1955 -11.7816 115.432
lradius 98.9432
lwrist -6.20228
lhand -33.3708 50.1344
lfingers 7.12502
lthumb -6.5722 440.012
rfemur -24.107 16.3832 9.62097
rtibia 25.4828
rfoot -35.3041 -12.2119
rtoes 8.55105
lfemur -19.3448 -18.2439 -7.85947
ltibia 40.705
lfoot -33.0618 2.77209
ltoes -38.9822
1940
root 8.18705 16.0657 -1.3192 -712.122 717.174 -3.11592
lowerback 7.22117 -2.54431 -2.29994
upperback -9.3521 -3.32674 4.06744
thorax -13.9811 -1.06225 6.45483
lowerneck 9.01292 -17.2691 -17.4242
upperneck 0.673681 -25.6437 23.3528
head 4.1245 -13.2004 8.57279
rclavicle 3.06128e-014 -2.46493e-014
rhumerus 48.9608 -36.2043 -42.7929
rradius 88.9261
rwrist -25.5088
rhand -12.5754 419.465
rfingers 7.12502
rthumb 13.5025 389.922
lclavicle 3.06128e-014 -2.46493e-014
lhumerus -47.8269 -15.1715 117.075
lradius 99.4643
lwrist -6.60458
lhand -32.4734 48.4039
lfingers 7.12502
lthumb -5.70581 438.307
rfemur -26.4414 13.9151 10.1268
rtibia 27.9719
rfoot -37.2588 -23.2566
rtoes 22.7936
lfemur -19.8506 -14.9209 -10.7122
ltibia 40.4581
lfoot -33.3278 5.56398
ltoes -37.3734
1941
root 8.51869 16.0598 -1.50487 -710.839 711.247 -2.52422
lowerback 6.85246 -2.71683 -3.07754
upperback -9.35478 -3.71061 3.851
thorax -13.672 -1.20289 6.68773
lowerneck 9.84024 -17.9119 -17.0697
upperneck 1.01618 -26.6214 22.5513
head 4.122 -13.7215 8.21444
rclavicle -7.03698e-014 -4.53229e-014
rhumerus 51.1675 -34.4488 -45.6687
rradius 90.6699
rwrist -25.7505
rhand -12.3144 417.947
rfingers 7.12502
rthumb 13.754 388.422
lclavicle -7.03698e-014 -4.53229e-014
lhumerus -48.1958 -18.1539 118.732
lradius 99.7478
lwrist -6.13657
lhand -32.8455 48.1564
lfingers 7.12502
lthumb -6.06502 438.05
rfemur -28.3745 10.6788 11.5621
rtibia 31.3832
rfoot -41.9184 -30.9299
rtoes 31.3269
lfemur -21.1907 -12.0891 -13.1414
ltibia 41.0634
lfoot -33.4297 8.26929
ltoes -35.6457
1942
root 8.8366 16.0222 -1.68457 -709.872 705.146 -2.32889
lowerback 6.45784 -2.84701 -3.58937
upperback -9.20071 -3.99122 3.61199
thorax -13.1877 -1.33627 6.70891
lowerneck 10.449 -18.1484 -16.6873
upperneck 1.49857 -27.0359 21.9174
head 4.10131 -13.9537 7.97817
rclavicle 2.26615e-014 2.38542e-014
rhumerus 53.3005 -32.6179 -48.7604
rradius 92.3309
rwrist -27.2038
rhand -12.6472 415.253
rfingers 7.12502
rthumb 13.4333 385.706
lclavicle 2.26615e-014 2.38542e-014
lhumerus -48.4717 -20.6509 120.035
lradius 100.076
lwrist -5.6425
lhand -32.7005 48.276
lfingers 7.12502
lthumb -5.9251 438.173
rfemur -30.1209 7.41047 13.826
rtibia 35.3364
rfoot -44.0002 -31.5813
rtoes 36.8246
lfemur -22.7004 -9.01027 -15.1678
ltibia 42.2867
lfoot -33.9206 10.712
ltoes -34.1422
1943
root 9.14605 15.9891 -1.84261 -709.486 698.695 -2.31387
lowerback 6.19169 -2.89438 -3.90893
upperback -8.79551 -4.13709 3.23149
thorax -12.5305 -1.44489 6.43375
lowerneck 10.9569 -17.9342 -16.238
upperneck 1.93459 -26.7979 21.3729
head 3.96141 -13.8645 7.86131
rclavicle 4.61677e-014 9.74045e-015
rhumerus 55.44 -30.7419 -52.0759
rradius 93.7699
rwrist -30.5341
rhand -12.9863 411.718
rfingers 7.12502
rthumb 13.1064 382.149
lclavicle 4.61677e-014 9.74045e-015
lhumerus -48.7233 -22.7161 121.037
lradius 100.493
lwrist -5.00101
lhand -32.7775 48.6106
lfingers 7.12502
lthumb -5.99938 438.506
rfemur -30.8332 3.84393 16.5516
rtibia 39.3946
rfoot -43.6115 -28.6223
rtoes 38.7041
lfemur -23.7411 -5.64732 -17.0603
ltibia 43.9223
lfoot -35.2684 12.5966
ltoes -31.5854
1944
root 9.45451 15.9386 -1.98423 -709.612 691.881 -2.245
lowerback 6.24802 -2.91658 -4.26278
upperback -8.37203 -4.26923 2.69733
thorax -12.0701 -1.53964 6.03672
lowerneck 10.9605 -17.3896 -15.6795
upperneck 3.00802 -26.1209 20.5774
head 3.96184 -13.5145 7.64532
rclavicle -2.86001e-014 -1.02374e-014
rhumerus 57.8893 -28.9674 -56.3641
rradius 94.8559
rwrist -33.1374
rhand -11.0776 407.92
rfingers 7.12502
rthumb 14.9457 378.48
lclavicle -2.86001e-014 -1.02374e-014
lhumerus -49.3716 -24.1841 121.816
lradius 101.01
lwrist -4.52255
lhand -32.4166 49.1896
lfingers 7.12502
lthumb -5.65097 439.094
rfemur -30.7024 0.294597 18.9434
rtibia 43.1821
rfoot -41.9529 -27.8006
rtoes 36.3367
lfemur -24.3556 -2.10558 -18.9801
ltibia 45.5328
lfoot -37.1232 14.2513
ltoes -28.1396
1945
root 9.76336 15.8598 -2.11545 -709.299 685.109 -3.19118
lowerback 6.36923 -3.01611 -3.58847
upperback -8.00208 -4.36349 2.31894
thorax -11.7741 -1.68813 5.24279
lowerneck 10.8803 -16.4887 -15.5517
upperneck 4.37546 -25.0802 20.0853
head 4.10317 -12.9874 7.59038
rclavicle -1.18581e-013 -5.47652e-014
rhumerus 60.3109 -26.8596 -60.6035
rradius 94.8514
rwrist -32.2117
rhand -11.6537 404.371
rfingers 7.12502
rthumb 14.3907 374.89
lclavicle -1.18581e-013 -5.47652e-014
lhumerus -49.8651 -25.273 122.463
lradius 101.293
lwrist -4.01486
lhand -32.8502 50.0857
lfingers 7.12502
lthumb -6.06958 439.979
rfemur -29.8474 -3.58842 21.903
rtibia 46.4639
rfoot -38.7943 -29.2522
rtoes 27.8987
lfemur -25.0889 1.97257 -19.9112
ltibia 46.9871
lfoot -38.626 15.8878
ltoes -25.7003
